<svg xmlns="http://www.w3.org/2000/svg" width="250" height="250" viewBox="0 0 250 250" fill="none">
<path d="M 134.76,229.42 H 34.8 C 26.83,229.42 21.85,223.02 21.85,216.61 V 74.83 H 224.86 V 132.91 C 230.46,137.78 235.26,143.73 237.91,147.94 V 52.15 C 237.91,38.78 227.34,28.21 214.51,28.21 H 198.69 V 44.92 C 198.69,54.69 190.92,60.08 183.63,60.08 C 174.66,60.08 167.91,52.74 167.91,44.92 V 28.21 H 79.89 V 44.92 C 79.89,53.83 72.33,60.08 64.31,60.08 C 54.97,60.08 48.31,52.26 48.31,44.22 V 28.21 H 32.09 C 18.92,28.21 9.87,40.28 9.87,52.15 V 217.23 C 9.87,229.69 19.59,242.13 33.12,242.13 H 151.88 C 145.18,238.76 139.18,233.87 134.76,229.42 Z" fill="#12467D"/>
<path d="M 63.51,8 C 57.49,8 55.26,13.74 55.26,16.31 V 44.76 C 55.26,50.14 59.21,53.46 63.51,53.46 C 68.89,53.46 72.43,49.29 72.43,44.76 V 16.31 C 72.43,11.29 68.28,8 63.51,8 Z" fill="#4CB4E1"/>
<path d="M 183.63,8 C 177.61,8 174.49,12.92 174.49,16.93 V 44.76 C 174.49,50.14 178.44,53.46 182.74,53.46 C 188.12,53.46 191.66,49.29 191.66,44.76 V 16.31 C 191.66,11.29 187.51,8 183.63,8 Z" fill="#4CB4E1"/>
<path d="M 110.8,90.4 V 104.87 C 112.42,108.03 114.22,111.07 115.64,114.6 H 136.12 V 90.4 H 110.8 Z" fill="#4CB4E1"/>
<path d="M 146.16,90.4 V 114.6 H 172.07 V 90.4 H 146.16 Z" fill="#4CB4E1"/>
<path d="M 183.11,90.4 V 114.6 H 209.02 V 90.4 H 183.11 Z" fill="#4CB4E1"/>
<path d="M 145.92,123.29 V 127.1 C 148.28,125.51 150.03,124.28 152.92,123.29 H 145.92 Z" fill="#4CB4E1"/>
<path d="M 117.53,123.29 C 118.72,131.91 116.91,139.06 114.11,146.99 H 126.54 C 129.72,141.96 131.71,139.17 135.81,134.75 V 123.29 H 117.53 Z" fill="#4CB4E1"/>
<path d="M 37.64,160.44 V 180.78 H 51.57 C 47.01,174.39 42.04,167.18 37.64,160.44 Z" fill="#4CB4E1"/>
<path d="M 37.64,189.51 V 212.95 H 63.55 V 198.76 C 60.82,195.67 59.19,193.28 57.29,189.51 H 37.64 Z" fill="#4CB4E1"/>
<path d="M 88.72,189.51 L 73.98,206.96 V 212.95 H 100.9 V 189.51 H 88.72 Z" fill="#4CB4E1"/>
<path d="M 110.18,156.76 V 180.78 H 116.2 C 116.75,171.91 118.22,164.99 121.78,156.76 H 110.18 Z" fill="#4CB4E1"/>
<path d="M 110.18,189.51 V 212.95 H 124.18 C 120.01,204.68 118.01,198.39 117.06,189.51 H 110.18 Z" fill="#4CB4E1"/>
<path d="M 100.9,172.31 L 94.34,180.78 H 100.9 V 172.31 Z" fill="#4CB4E1"/>
<path d="M 73.27,93.44 C 53.49,93.44 37.47,111.11 37.47,129.3 C 37.47,150.11 57.29,175.27 72.71,193.65 L 72.98,193.99 L 73.53,193.29 C 87.28,174.71 107.83,147.92 107.83,129.07 C 107.83,110.06 92.08,93.44 73.27,93.44 Z M 72.93,147.06 C 62.59,147.06 54.86,137.67 54.86,128.79 C 54.86,119.44 63.45,111.11 72.79,111.11 C 82.79,111.11 90.94,119.53 90.94,129.07 C 90.94,138.71 82.74,147.06 72.93,147.06 Z" fill="#4CB4E1" stroke="#0F4374" stroke-width="7" stroke-miterlimit="10"/>
<path d="M 182.11,123.91 C 151.01,123.91 123.72,151.66 123.72,183.19 C 123.72,213.86 148.89,242.13 182.11,242.13 C 213.81,242.13 239.92,213.31 239.92,183.19 C 239.92,152.69 214.11,123.91 182.11,123.91 Z M 182.11,230.81 C 155.11,230.81 134.41,207.73 134.41,183.43 C 134.41,158.17 156.06,134.73 182.26,134.73 C 207.82,134.73 229.23,158.31 229.23,183.31 C 229.23,207.47 208.19,230.81 182.11,230.81 Z" fill="#0F4374"/>
<path d="M 185.39,177.06 V 158.21 C 185.39,155.06 184.38,153.77 182.11,153.77 C 179.84,153.77 178.79,155.78 178.79,158.21 V 176.61 C 176.39,178.21 174.91,179.99 174.91,183.22 C 174.91,188.15 178.91,189.51 182.76,189.12 L 192.72,198.62 C 194.88,200.21 196.47,199.45 197.52,198.4 C 198.8,196.72 197.91,194.63 196.81,193.65 L 188.12,184.83 C 188.47,181.51 187.69,178.94 185.39,177.06 Z" fill="#0F4374"/>
<path d="M 182.11,139.46 C 180.27,139.46 179.58,140.36 179.58,142.09 V 146.44 C 179.58,148.16 180.68,148.91 182.11,148.91 C 183.69,148.91 184.38,147.92 184.38,146.44 V 142.09 C 184.38,140.41 183.54,139.46 182.11,139.46 Z" fill="#0F4374"/>
<path d="M 161.78,145.19 C 160.44,145.92 159.21,146.66 159.68,148.21 L 162.58,153.29 C 163.53,154.23 165.71,153.73 165.94,152.51 L 166.08,151.77 L 163.28,146.16 C 162.91,145.51 162.41,145.06 161.78,145.19 Z" fill="#0F4374"/>
<path d="M 145.71,162.06 L 151.09,166.13 C 152.42,166.91 153.32,166.32 153.65,165.32 C 154.18,164.38 153.69,163.38 152.81,162.88 L 147.43,161.08 C 146.38,160.61 145.71,161.08 145.71,162.06 Z" fill="#0F4374"/>
<path d="M 140.59,183.01 C 140.59,184.73 141.64,185.47 143.07,185.47 H 146.61 C 148.41,185.47 148.79,184.48 148.79,183.01 C 148.79,181.53 147.91,180.78 146.61,180.78 H 142.31 C 141.01,180.78 140.59,181.77 140.59,183.01 Z" fill="#0F4374"/>
<path d="M 145.22,203.06 C 145.71,204.3 146.61,204.81 147.71,204.3 L 152.27,201.51 C 153.6,200.76 153.46,199.77 152.97,198.96 C 152.37,198.12 151.27,198.26 150.32,198.76 L 145.76,201.55 C 145.07,202.06 145.03,202.56 145.22,203.06 Z" fill="#0F4374"/>
<path d="M 160.11,218.63 C 160.6,219.62 162.13,219.91 163.07,219.12 L 166.08,213.86 C 166.71,212.62 165.92,211.92 165.03,211.53 C 163.93,211.02 162.83,211.77 162.34,212.76 L 159.54,217.31 C 159.16,217.82 159.54,218.36 160.11,218.63 Z" fill="#0F4374"/>
<path d="M 182.11,215.91 C 180.27,215.91 179.58,217.14 179.58,218.63 V 223.69 C 179.58,225.17 180.68,225.91 182.11,225.91 C 183.69,225.91 184.38,224.92 184.38,223.69 V 218.63 C 184.38,217.14 183.54,215.91 182.11,215.91 Z" fill="#0F4374"/>
<path d="M 199.02,212.72 C 198.13,213.22 197.71,214.21 198.24,215.16 L 200.99,220.22 C 201.67,221.21 202.91,220.94 203.81,220.22 C 204.7,219.71 204.42,218.48 203.81,217.68 L 201.06,212.86 C 200.43,212.11 199.71,212.25 199.02,212.72 Z" fill="#0F4374"/>
<path d="M 211.51,200.49 C 211.02,201.48 211.65,202.47 212.54,202.97 L 217.1,205.5 C 218.19,206.24 218.93,205.25 219.31,204.26 C 219.94,203.02 219.15,202.03 218.26,201.52 L 213.7,199.01 C 212.6,198.5 211.92,199.24 211.51,200.49 Z" fill="#0F4374"/>
<path d="M 214.81,183.01 C 214.81,184.73 216.14,185.47 217.57,185.47 H 222.03 C 223.61,185.47 224.3,184.48 224.3,183.01 C 224.3,181.53 223.41,180.78 222.03,180.78 H 217.57 C 215.99,180.78 214.81,181.77 214.81,183.01 Z" fill="#0F4374"/>
<path d="M 211.31,166.1 C 211.8,167.34 212.7,167.61 213.8,167.1 L 218.36,164.31 C 219.45,163.56 219.41,162.57 218.78,161.58 C 218.15,160.59 217.05,160.59 216.16,161.33 L 211.6,164.61 C 210.91,165.12 210.87,165.62 211.31,166.1 Z" fill="#0F4374"/>
<path d="M 198.41,152.21 C 198.91,153.44 200.01,153.73 200.9,153.22 L 201.53,152.71 L 204.33,147.65 C 204.71,146.66 204.22,145.67 203.32,145.16 C 202.23,144.42 201.13,145.16 200.49,146.16 L 197.95,151.22 C 197.57,151.73 197.81,152.06 198.41,152.21 Z" fill="#0F4374"/>
</svg>